<svg width="24" height="26" viewBox="0 0 24 26" fill="none" xmlns="http://www.w3.org/2000/svg">
<path d="M12 26L14.7143 18.5445C14.9648 17.8562 15.09 17.5121 15.2819 17.222C15.4519 16.9648 15.6597 16.7396 15.8972 16.5554C16.1651 16.3476 16.4827 16.2119 17.118 15.9404L24 13L17.118 10.0595C16.4827 9.78813 16.1651 9.6525 15.8972 9.44464C15.6597 9.26048 15.4519 9.03529 15.2819 8.77803C15.09 8.48784 14.9648 8.14378 14.7143 7.4555L12 0L9.28576 7.4555C9.03521 8.14378 8.90993 8.48784 8.71812 8.77803C8.54808 9.03529 8.34021 9.26048 8.1028 9.44464C7.83496 9.6525 7.51732 9.78813 6.88204 10.0595L0 13L6.88204 15.9404C7.51732 16.2119 7.83496 16.3476 8.1028 16.5554C8.34021 16.7396 8.54808 16.9648 8.71812 17.222C8.90993 17.5121 9.03521 17.8562 9.28576 18.5445L12 26Z" fill="#120E0F"/>
</svg>
